<svg xmlns="http://www.w3.org/2000/svg" xmlns:xlink="http://www.w3.org/1999/xlink" xmlns:lucid="lucid" width="2309.44" height="1360"><g transform="translate(0 0)" lucid:page-tab-id="0_0"><path d="M0 0h2309.44v1360H0z" fill="#fff"/><path d="M720 168c0-4.42 3.58-8 8-8h344c4.42 0 8 3.58 8 8v334c0 4.42-3.58 8-8 8H728c-4.42 0-8-3.58-8-8z" stroke="#333" fill="#fff"/><path d="M720 197.6h360M720 343.1h360" stroke="#333" fill="none"/><use xlink:href="#a" transform="matrix(1,0,0,1,728,168) translate(146.525 14.6)"/><use xlink:href="#b" transform="matrix(1,0,0,1,732,205.6) translate(0 25.39999999999999)"/><use xlink:href="#c" transform="matrix(1,0,0,1,732,205.6) translate(10.95 25.39999999999999)"/><use xlink:href="#d" transform="matrix(1,0,0,1,732,205.6) translate(34.9 25.39999999999999)"/><use xlink:href="#b" transform="matrix(1,0,0,1,732,205.6) translate(0 46.99999999999999)"/><use xlink:href="#e" transform="matrix(1,0,0,1,732,205.6) translate(10.95 46.99999999999999)"/><use xlink:href="#f" transform="matrix(1,0,0,1,732,205.6) translate(71.85 46.99999999999999)"/><use xlink:href="#b" transform="matrix(1,0,0,1,732,205.6) translate(0 68.6)"/><use xlink:href="#g" transform="matrix(1,0,0,1,732,205.6) translate(10.95 68.6)"/><use xlink:href="#h" transform="matrix(1,0,0,1,732,205.6) translate(119.85000000000001 68.6)"/><use xlink:href="#b" transform="matrix(1,0,0,1,732,205.6) translate(0 90.20000000000002)"/><use xlink:href="#i" transform="matrix(1,0,0,1,732,205.6) translate(10.95 90.20000000000002)"/><use xlink:href="#j" transform="matrix(1,0,0,1,732,205.6) translate(164.75 90.20000000000002)"/><use xlink:href="#k" transform="matrix(1,0,0,1,732,205.6) translate(0 111.80000000000001)"/><use xlink:href="#l" transform="matrix(1,0,0,1,732,205.6) translate(29.9 111.80000000000001)"/><use xlink:href="#m" transform="matrix(1,0,0,1,732,351.1) translate(0 25.6)"/><use xlink:href="#n" transform="matrix(1,0,0,1,732,351.1) translate(15.5 25.6)"/><use xlink:href="#d" transform="matrix(1,0,0,1,732,351.1) translate(86.35000000000001 25.6)"/><use xlink:href="#m" transform="matrix(1,0,0,1,732,351.1) translate(0 47.2)"/><use xlink:href="#o" transform="matrix(1,0,0,1,732,351.1) translate(15.5 47.2)"/><use xlink:href="#j" transform="matrix(1,0,0,1,732,351.1) translate(216.19999999999993 47.2)"/><use xlink:href="#m" transform="matrix(1,0,0,1,732,351.1) translate(0 68.80000000000001)"/><use xlink:href="#p" transform="matrix(1,0,0,1,732,351.1) translate(15.5 68.80000000000001)"/><use xlink:href="#h" transform="matrix(1,0,0,1,732,351.1) translate(171.29999999999998 68.80000000000001)"/><use xlink:href="#m" transform="matrix(1,0,0,1,732,351.1) translate(0 90.40000000000002)"/><use xlink:href="#q" transform="matrix(1,0,0,1,732,351.1) translate(15.5 90.40000000000002)"/><use xlink:href="#f" transform="matrix(1,0,0,1,732,351.1) translate(174.25 90.40000000000002)"/><use xlink:href="#m" transform="matrix(1,0,0,1,732,351.1) translate(0 112.00000000000001)"/><use xlink:href="#r" transform="matrix(1,0,0,1,732,351.1) translate(15.5 112.00000000000001)"/><use xlink:href="#s" transform="matrix(1,0,0,1,732,351.1) translate(255.24999999999994 112.00000000000001)"/><use xlink:href="#m" transform="matrix(1,0,0,1,732,351.1) translate(0 133.6)"/><use xlink:href="#t" transform="matrix(1,0,0,1,732,351.1) translate(15.5 133.6)"/><path d="M40 68c0-4.42 3.58-8 8-8h344c4.42 0 8 3.58 8 8v269c0 4.42-3.58 8-8 8H48c-4.42 0-8-3.58-8-8z" stroke="#333" fill="#fff"/><path d="M40 97.6h360M40 221.4h360" stroke="#333" fill="none"/><g><use xlink:href="#u" transform="matrix(1,0,0,1,48,68) translate(151 14.6)"/></g><g><use xlink:href="#b" transform="matrix(1,0,0,1,52,105.6) translate(0 36)"/><use xlink:href="#v" transform="matrix(1,0,0,1,52,105.6) translate(10.95 36)"/><use xlink:href="#h" transform="matrix(1,0,0,1,52,105.6) translate(64.8 36)"/><use xlink:href="#b" transform="matrix(1,0,0,1,52,105.6) translate(0 57.6)"/><use xlink:href="#w" transform="matrix(1,0,0,1,52,105.6) translate(10.95 57.6)"/><use xlink:href="#h" transform="matrix(1,0,0,1,52,105.6) translate(107.85000000000001 57.6)"/><use xlink:href="#b" transform="matrix(1,0,0,1,52,105.6) translate(0 79.20000000000002)"/><use xlink:href="#x" transform="matrix(1,0,0,1,52,105.6) translate(10.95 79.20000000000002)"/><use xlink:href="#y" transform="matrix(1,0,0,1,52,105.6) translate(72.85000000000001 79.20000000000002)"/></g><g><use xlink:href="#m" transform="matrix(1,0,0,1,52,229.39999999999998) translate(0 36)"/><use xlink:href="#z" transform="matrix(1,0,0,1,52,229.39999999999998) translate(15.5 36)"/><use xlink:href="#A" transform="matrix(1,0,0,1,52,229.39999999999998) translate(124.4 36)"/><use xlink:href="#B" transform="matrix(1,0,0,1,52,229.39999999999998) translate(185.35000000000002 36)"/><use xlink:href="#m" transform="matrix(1,0,0,1,52,229.39999999999998) translate(0 57.6)"/><use xlink:href="#C" transform="matrix(1,0,0,1,52,229.39999999999998) translate(15.5 57.6)"/><use xlink:href="#h" transform="matrix(1,0,0,1,52,229.39999999999998) translate(116.25000000000001 57.6)"/><use xlink:href="#m" transform="matrix(1,0,0,1,52,229.39999999999998) translate(0 79.20000000000002)"/><use xlink:href="#D" transform="matrix(1,0,0,1,52,229.39999999999998) translate(15.5 79.20000000000002)"/><use xlink:href="#E" transform="matrix(1,0,0,1,52,229.39999999999998) translate(159.3 79.20000000000002)"/></g><path d="M20 448c0-4.42 3.58-8 8-8h384c4.42 0 8 3.58 8 8v507c0 4.42-3.58 8-8 8H28c-4.42 0-8-3.58-8-8z" stroke="#333" fill="#fff"/><path d="M20 477.6h400M20 579.9h400" stroke="#333" fill="none"/><g><use xlink:href="#F" transform="matrix(1,0,0,1,28,448) translate(167.025 14.6)"/></g><g><use xlink:href="#b" transform="matrix(1,0,0,1,32,485.6) translate(0 25.5)"/><use xlink:href="#G" transform="matrix(1,0,0,1,32,485.6) translate(10.95 25.5)"/><use xlink:href="#H" transform="matrix(1,0,0,1,32,485.6) translate(69.95 25.5)"/><use xlink:href="#I" transform="matrix(1,0,0,1,32,485.6) translate(0 47.1)"/><use xlink:href="#j" transform="matrix(1,0,0,1,32,485.6) translate(81.80000000000001 47.1)"/><use xlink:href="#J" transform="matrix(1,0,0,1,32,485.6) translate(0 68.7)"/></g><g><use xlink:href="#m" transform="matrix(1,0,0,1,32,587.9) translate(0 14.4)"/><use xlink:href="#K" transform="matrix(1,0,0,1,32,587.9) translate(15.5 14.4)"/><use xlink:href="#d" transform="matrix(1,0,0,1,32,587.9) translate(126.35000000000001 14.4)"/><use xlink:href="#m" transform="matrix(1,0,0,1,32,587.9) translate(0 36)"/><use xlink:href="#L" transform="matrix(1,0,0,1,32,587.9) translate(15.5 36)"/><use xlink:href="#h" transform="matrix(1,0,0,1,32,587.9) translate(140.3 36)"/><use xlink:href="#m" transform="matrix(1,0,0,1,32,587.9) translate(0 57.6)"/><use xlink:href="#M" transform="matrix(1,0,0,1,32,587.9) translate(15.5 57.6)"/><use xlink:href="#N" transform="matrix(1,0,0,1,32,587.9) translate(245.19999999999996 57.6)"/><use xlink:href="#m" transform="matrix(1,0,0,1,32,587.9) translate(0 79.20000000000002)"/><use xlink:href="#O" transform="matrix(1,0,0,1,32,587.9) translate(15.5 79.20000000000002)"/><use xlink:href="#N" transform="matrix(1,0,0,1,32,587.9) translate(277.19999999999993 79.20000000000002)"/><use xlink:href="#m" transform="matrix(1,0,0,1,32,587.9) translate(0 100.80000000000001)"/><use xlink:href="#P" transform="matrix(1,0,0,1,32,587.9) translate(15.5 100.80000000000001)"/><use xlink:href="#N" transform="matrix(1,0,0,1,32,587.9) translate(224.29999999999995 100.80000000000001)"/><use xlink:href="#m" transform="matrix(1,0,0,1,32,587.9) translate(0 122.4)"/><use xlink:href="#Q" transform="matrix(1,0,0,1,32,587.9) translate(15.5 122.4)"/><use xlink:href="#N" transform="matrix(1,0,0,1,32,587.9) translate(256.29999999999995 122.4)"/><use xlink:href="#m" transform="matrix(1,0,0,1,32,587.9) translate(0 144)"/><use xlink:href="#R" transform="matrix(1,0,0,1,32,587.9) translate(15.5 144)"/><use xlink:href="#s" transform="matrix(1,0,0,1,32,587.9) translate(170.2 144)"/><use xlink:href="#m" transform="matrix(1,0,0,1,32,587.9) translate(0 165.6)"/><use xlink:href="#S" transform="matrix(1,0,0,1,32,587.9) translate(15.5 165.6)"/><use xlink:href="#f" transform="matrix(1,0,0,1,32,587.9) translate(156.25 165.6)"/><use xlink:href="#m" transform="matrix(1,0,0,1,32,587.9) translate(0 187.2)"/><use xlink:href="#T" transform="matrix(1,0,0,1,32,587.9) translate(15.5 187.2)"/><use xlink:href="#U" transform="matrix(1,0,0,1,32,587.9) translate(124.25 187.2)"/><use xlink:href="#V" transform="matrix(1,0,0,1,32,587.9) translate(174.2 187.2)"/><use xlink:href="#b" transform="matrix(1,0,0,1,32,587.9) translate(0 208.79999999999998)"/><use xlink:href="#W" transform="matrix(1,0,0,1,32,587.9) translate(10.95 208.79999999999998)"/><use xlink:href="#V" transform="matrix(1,0,0,1,32,587.9) translate(120.75000000000001 208.79999999999998)"/><use xlink:href="#b" transform="matrix(1,0,0,1,32,587.9) translate(0 230.39999999999998)"/><use xlink:href="#X" transform="matrix(1,0,0,1,32,587.9) translate(10.95 230.39999999999998)"/><use xlink:href="#V" transform="matrix(1,0,0,1,32,587.9) translate(155.64999999999998 230.39999999999998)"/><use xlink:href="#b" transform="matrix(1,0,0,1,32,587.9) translate(0 251.99999999999997)"/><use xlink:href="#Y" transform="matrix(1,0,0,1,32,587.9) translate(10.95 251.99999999999997)"/><use xlink:href="#V" transform="matrix(1,0,0,1,32,587.9) translate(155.7 251.99999999999997)"/><use xlink:href="#b" transform="matrix(1,0,0,1,32,587.9) translate(0 273.59999999999997)"/><use xlink:href="#Z" transform="matrix(1,0,0,1,32,587.9) translate(10.95 273.59999999999997)"/><use xlink:href="#V" transform="matrix(1,0,0,1,32,587.9) translate(143.75 273.59999999999997)"/><use xlink:href="#m" transform="matrix(1,0,0,1,32,587.9) translate(0 295.2)"/><use xlink:href="#aa" transform="matrix(1,0,0,1,32,587.9) translate(15.5 295.2)"/><use xlink:href="#s" transform="matrix(1,0,0,1,32,587.9) translate(174.05 295.2)"/><use xlink:href="#m" transform="matrix(1,0,0,1,32,587.9) translate(0 316.8)"/><use xlink:href="#ab" transform="matrix(1,0,0,1,32,587.9) translate(15.5 316.8)"/><use xlink:href="#j" transform="matrix(1,0,0,1,32,587.9) translate(286.24999999999994 316.8)"/><use xlink:href="#m" transform="matrix(1,0,0,1,32,587.9) translate(0 338.40000000000003)"/><use xlink:href="#ac" transform="matrix(1,0,0,1,32,587.9) translate(15.5 338.40000000000003)"/></g><path d="M421 701.5h137c6.63 0 12-5.37 12-12V347c0-6.63 5.37-12 12-12h107.13" stroke="#333" fill="none"/><path d="M421 702h-.5v-1h.5z" fill="#333"/><path d="M718.8 335l-14.86 14.85L688.8 335l15.14-14.85z" stroke="#333" fill="#333"/><g><use xlink:href="#ad" transform="matrix(1,0,0,1,427.7846351190074,705.5) translate(0 14.4)"/></g><g><use xlink:href="#ae" transform="matrix(1,0,0,1,692.9999999999998,309.4) translate(0 14.4)"/></g><path d="M220 439v-63.13" stroke="#333" fill="none"/><path d="M220.5 439.5h-1v-.5h1z" fill="#333"/><path d="M220 346.2l14.85 14.86L220 376.2l-14.85-15.14z" stroke="#333" fill="#333"/><g><use xlink:href="#ad" transform="matrix(1,0,0,1,228,417.7) translate(0 14.4)"/></g><g><use xlink:href="#af" transform="matrix(1,0,0,1,185,345.69999999999993) translate(0 14.4)"/></g><defs><path fill="#333" d="M137 0h-34L2-248h35l83 218 83-218h36" id="ag"/><path fill="#333" d="M100-194c63 0 86 42 84 106H49c0 40 14 67 53 68 26 1 43-12 49-29l28 8c-11 28-37 45-77 45C44 4 14-33 15-96c1-61 26-98 85-98zm52 81c6-60-76-77-97-28-3 7-6 17-6 28h103" id="ah"/><path fill="#333" d="M114-163C36-179 61-72 57 0H25l-1-190h30c1 12-1 29 2 39 6-27 23-49 58-41v29" id="ai"/><path fill="#333" d="M59-47c-2 24 18 29 38 22v24C64 9 27 4 27-40v-127H5v-23h24l9-43h21v43h35v23H59v120" id="aj"/><path fill="#333" d="M141 0L90-78 38 0H4l68-98-65-92h35l48 74 47-74h35l-64 92 68 98h-35" id="ak"/><g id="a"><use transform="matrix(0.05,0,0,0.05,0,0)" xlink:href="#ag"/><use transform="matrix(0.05,0,0,0.05,11,0)" xlink:href="#ah"/><use transform="matrix(0.05,0,0,0.05,21,0)" xlink:href="#ai"/><use transform="matrix(0.05,0,0,0.05,26.950000000000003,0)" xlink:href="#aj"/><use transform="matrix(0.05,0,0,0.05,31.950000000000003,0)" xlink:href="#ah"/><use transform="matrix(0.05,0,0,0.05,41.95,0)" xlink:href="#ak"/></g><path fill="#333" d="M16-82v-28h88v28H16" id="al"/><use transform="matrix(0.05,0,0,0.05,0,0)" xlink:href="#al" id="b"/><path fill="#333" d="M24-231v-30h32v30H24zM24 0v-190h32V0H24" id="am"/><path fill="#333" d="M85-194c31 0 48 13 60 33l-1-100h32l1 261h-30c-2-10 0-23-3-31C134-8 116 4 85 4 32 4 16-35 15-94c0-66 23-100 70-100zm9 24c-40 0-46 34-46 75 0 40 6 74 45 74 42 0 51-32 51-76 0-42-9-74-50-73" id="an"/><path fill="#333" d="M33-154v-36h34v36H33zM33 0v-36h34V0H33" id="ao"/><g id="c"><use transform="matrix(0.05,0,0,0.05,0,0)" xlink:href="#am"/><use transform="matrix(0.05,0,0,0.05,3.95,0)" xlink:href="#an"/><use transform="matrix(0.05,0,0,0.05,13.949999999999998,0)" xlink:href="#ao"/></g><path fill="#333" d="M117-194c89-4 53 116 60 194h-32v-121c0-31-8-49-39-48C34-167 62-67 57 0H25l-1-190h30c1 10-1 24 2 32 11-22 29-35 61-36" id="ap"/><g id="d"><use transform="matrix(0.05,0,0,0.05,0,0)" xlink:href="#am"/><use transform="matrix(0.05,0,0,0.05,3.95,0)" xlink:href="#ap"/><use transform="matrix(0.05,0,0,0.05,13.949999999999998,0)" xlink:href="#aj"/></g><path fill="#333" d="M108 0H70L1-190h34L89-25l56-165h34" id="aq"/><path fill="#333" d="M135-143c-3-34-86-38-87 0 15 53 115 12 119 90S17 21 10-45l28-5c4 36 97 45 98 0-10-56-113-15-118-90-4-57 82-63 122-42 12 7 21 19 24 35" id="ar"/><g id="e"><use transform="matrix(0.05,0,0,0.05,0,0)" xlink:href="#aq"/><use transform="matrix(0.05,0,0,0.05,9,0)" xlink:href="#am"/><use transform="matrix(0.05,0,0,0.05,12.949999999999998,0)" xlink:href="#ar"/><use transform="matrix(0.05,0,0,0.05,21.95,0)" xlink:href="#am"/><use transform="matrix(0.05,0,0,0.05,25.899999999999995,0)" xlink:href="#aj"/><use transform="matrix(0.05,0,0,0.05,30.899999999999995,0)" xlink:href="#ah"/><use transform="matrix(0.05,0,0,0.05,40.9,0)" xlink:href="#an"/><use transform="matrix(0.05,0,0,0.05,50.9,0)" xlink:href="#ao"/></g><path fill="#333" d="M115-194c53 0 69 39 70 98 0 66-23 100-70 100C84 3 66-7 56-30L54 0H23l1-261h32v101c10-23 28-34 59-34zm-8 174c40 0 45-34 45-75 0-40-5-75-45-74-42 0-51 32-51 76 0 43 10 73 51 73" id="as"/><path fill="#333" d="M100-194c62-1 85 37 85 99 1 63-27 99-86 99S16-35 15-95c0-66 28-99 85-99zM99-20c44 1 53-31 53-75 0-43-8-75-51-75s-53 32-53 75 10 74 51 75" id="at"/><path fill="#333" d="M24 0v-261h32V0H24" id="au"/><path fill="#333" d="M141-36C126-15 110 5 73 4 37 3 15-17 15-53c-1-64 63-63 125-63 3-35-9-54-41-54-24 1-41 7-42 31l-33-3c5-37 33-52 76-52 45 0 72 20 72 64v82c-1 20 7 32 28 27v20c-31 9-61-2-59-35zM48-53c0 20 12 33 32 33 41-3 63-29 60-74-43 2-92-5-92 41" id="av"/><g id="f"><use transform="matrix(0.05,0,0,0.05,0,0)" xlink:href="#as"/><use transform="matrix(0.05,0,0,0.05,10,0)" xlink:href="#at"/><use transform="matrix(0.05,0,0,0.05,20,0)" xlink:href="#at"/><use transform="matrix(0.05,0,0,0.05,30,0)" xlink:href="#au"/><use transform="matrix(0.05,0,0,0.05,33.95,0)" xlink:href="#ah"/><use transform="matrix(0.05,0,0,0.05,43.95,0)" xlink:href="#av"/><use transform="matrix(0.05,0,0,0.05,53.95,0)" xlink:href="#ap"/></g><path fill="#333" d="M115-194c55 1 70 41 70 98S169 2 115 4C84 4 66-9 55-30l1 105H24l-1-265h31l2 30c10-21 28-34 59-34zm-8 174c40 0 45-34 45-75s-6-73-45-74c-42 0-51 32-51 76 0 43 10 73 51 73" id="aw"/><path fill="#333" d="M96-169c-40 0-48 33-48 73s9 75 48 75c24 0 41-14 43-38l32 2c-6 37-31 61-74 61-59 0-76-41-82-99-10-93 101-131 147-64 4 7 5 14 7 22l-32 3c-4-21-16-35-41-35" id="ax"/><g id="g"><use transform="matrix(0.05,0,0,0.05,0,0)" xlink:href="#aw"/><use transform="matrix(0.05,0,0,0.05,10,0)" xlink:href="#ai"/><use transform="matrix(0.05,0,0,0.05,15.949999999999998,0)" xlink:href="#ah"/><use transform="matrix(0.05,0,0,0.05,25.950000000000003,0)" xlink:href="#an"/><use transform="matrix(0.05,0,0,0.05,35.95,0)" xlink:href="#ah"/><use transform="matrix(0.05,0,0,0.05,45.95,0)" xlink:href="#ax"/><use transform="matrix(0.05,0,0,0.05,54.95,0)" xlink:href="#ah"/><use transform="matrix(0.05,0,0,0.05,64.95,0)" xlink:href="#ar"/><use transform="matrix(0.05,0,0,0.05,73.95,0)" xlink:href="#ar"/><use transform="matrix(0.05,0,0,0.05,82.95,0)" xlink:href="#at"/><use transform="matrix(0.05,0,0,0.05,92.95,0)" xlink:href="#ai"/><use transform="matrix(0.05,0,0,0.05,98.9,0)" xlink:href="#ao"/></g><g id="h"><use transform="matrix(0.05,0,0,0.05,0,0)" xlink:href="#ag"/><use transform="matrix(0.05,0,0,0.05,11,0)" xlink:href="#ah"/><use transform="matrix(0.05,0,0,0.05,21,0)" xlink:href="#ai"/><use transform="matrix(0.05,0,0,0.05,26.950000000000003,0)" xlink:href="#aj"/><use transform="matrix(0.05,0,0,0.05,31.950000000000003,0)" xlink:href="#ah"/><use transform="matrix(0.05,0,0,0.05,41.95,0)" xlink:href="#ak"/></g><path fill="#333" d="M24-231v-30h32v30H24zM-9 49c24 4 33-6 33-30v-209h32V24c2 40-23 58-65 49V49" id="ay"/><path fill="#333" d="M-5 72V49h209v23H-5" id="az"/><g id="i"><use transform="matrix(0.05,0,0,0.05,0,0)" xlink:href="#av"/><use transform="matrix(0.05,0,0,0.05,10,0)" xlink:href="#an"/><use transform="matrix(0.05,0,0,0.05,20,0)" xlink:href="#ay"/><use transform="matrix(0.05,0,0,0.05,23.95,0)" xlink:href="#av"/><use transform="matrix(0.05,0,0,0.05,33.95,0)" xlink:href="#ax"/><use transform="matrix(0.05,0,0,0.05,42.95,0)" xlink:href="#ah"/><use transform="matrix(0.05,0,0,0.05,52.95,0)" xlink:href="#ap"/><use transform="matrix(0.05,0,0,0.05,62.95,0)" xlink:href="#aj"/><use transform="matrix(0.05,0,0,0.05,67.95,0)" xlink:href="#az"/><use transform="matrix(0.05,0,0,0.05,77.95,0)" xlink:href="#aq"/><use transform="matrix(0.05,0,0,0.05,86.95,0)" xlink:href="#ah"/><use transform="matrix(0.05,0,0,0.05,96.95,0)" xlink:href="#ai"/><use transform="matrix(0.05,0,0,0.05,102.9,0)" xlink:href="#aj"/><use transform="matrix(0.05,0,0,0.05,107.9,0)" xlink:href="#am"/><use transform="matrix(0.05,0,0,0.05,111.85000000000001,0)" xlink:href="#ax"/><use transform="matrix(0.05,0,0,0.05,120.85000000000001,0)" xlink:href="#am"/><use transform="matrix(0.05,0,0,0.05,124.80000000000001,0)" xlink:href="#ah"/><use transform="matrix(0.05,0,0,0.05,134.8,0)" xlink:href="#ar"/><use transform="matrix(0.05,0,0,0.05,143.8,0)" xlink:href="#ao"/></g><path fill="#333" d="M26 75v-336h71v23H56V52h41v23H26" id="aA"/><path fill="#333" d="M3 75V52h41v-290H3v-23h71V75H3" id="aB"/><g id="j"><use transform="matrix(0.05,0,0,0.05,0,0)" xlink:href="#ag"/><use transform="matrix(0.05,0,0,0.05,11,0)" xlink:href="#ah"/><use transform="matrix(0.05,0,0,0.05,21,0)" xlink:href="#ai"/><use transform="matrix(0.05,0,0,0.05,26.950000000000003,0)" xlink:href="#aj"/><use transform="matrix(0.05,0,0,0.05,31.950000000000003,0)" xlink:href="#ah"/><use transform="matrix(0.05,0,0,0.05,41.95,0)" xlink:href="#ak"/><use transform="matrix(0.05,0,0,0.05,50.95,0)" xlink:href="#aA"/><use transform="matrix(0.05,0,0,0.05,55.95,0)" xlink:href="#aB"/></g><g id="k"><use transform="matrix(0.05,0,0,0.05,0,0)" xlink:href="#al"/><use transform="matrix(0.05,0,0,0.05,5.95,0)" xlink:href="#am"/><use transform="matrix(0.05,0,0,0.05,9.9,0)" xlink:href="#ap"/><use transform="matrix(0.05,0,0,0.05,19.9,0)" xlink:href="#aj"/></g><path fill="#333" d="M210-169c-67 3-38 105-44 169h-31v-121c0-29-5-50-35-48C34-165 62-65 56 0H25l-1-190h30c1 10-1 24 2 32 10-44 99-50 107 0 11-21 27-35 58-36 85-2 47 119 55 194h-31v-121c0-29-5-49-35-48" id="aC"/><g id="l"><use transform="matrix(0.05,0,0,0.05,0,0)" xlink:href="#aC"/><use transform="matrix(0.05,0,0,0.05,14.950000000000001,0)" xlink:href="#am"/><use transform="matrix(0.05,0,0,0.05,18.900000000000002,0)" xlink:href="#ap"/><use transform="matrix(0.05,0,0,0.05,28.900000000000002,0)" xlink:href="#az"/><use transform="matrix(0.05,0,0,0.05,38.900000000000006,0)" xlink:href="#an"/><use transform="matrix(0.05,0,0,0.05,48.900000000000006,0)" xlink:href="#am"/><use transform="matrix(0.05,0,0,0.05,52.85,0)" xlink:href="#ar"/><use transform="matrix(0.05,0,0,0.05,61.85,0)" xlink:href="#aj"/><use transform="matrix(0.05,0,0,0.05,66.85000000000001,0)" xlink:href="#av"/><use transform="matrix(0.05,0,0,0.05,76.85000000000001,0)" xlink:href="#ap"/><use transform="matrix(0.05,0,0,0.05,86.85000000000001,0)" xlink:href="#ax"/><use transform="matrix(0.05,0,0,0.05,95.85000000000001,0)" xlink:href="#ah"/></g><path fill="#333" d="M118-107v75H92v-75H18v-26h74v-75h26v75h74v26h-74" id="aD"/><use transform="matrix(0.05,0,0,0.05,0,0)" xlink:href="#aD" id="m"/><path fill="#333" d="M177-190C167-65 218 103 67 71c-23-6-38-20-44-43l32-5c15 47 100 32 89-28v-30C133-14 115 1 83 1 29 1 15-40 15-95c0-56 16-97 71-98 29-1 48 16 59 35 1-10 0-23 2-32h30zM94-22c36 0 50-32 50-73 0-42-14-75-50-75-39 0-46 34-46 75s6 73 46 73" id="aE"/><path fill="#333" d="M87 75C49 33 22-17 22-94c0-76 28-126 65-167h31c-38 41-64 92-64 168S80 34 118 75H87" id="aF"/><path fill="#333" d="M33-261c38 41 65 92 65 168S71 34 33 75H2C39 34 66-17 66-93S39-220 2-261h31" id="aG"/><g id="n"><use transform="matrix(0.05,0,0,0.05,0,0)" xlink:href="#aE"/><use transform="matrix(0.05,0,0,0.05,10,0)" xlink:href="#ah"/><use transform="matrix(0.05,0,0,0.05,20,0)" xlink:href="#aj"/><use transform="matrix(0.05,0,0,0.05,25,0)" xlink:href="#az"/><use transform="matrix(0.05,0,0,0.05,35,0)" xlink:href="#am"/><use transform="matrix(0.05,0,0,0.05,38.95,0)" xlink:href="#an"/><use transform="matrix(0.05,0,0,0.05,48.95,0)" xlink:href="#aF"/><use transform="matrix(0.05,0,0,0.05,54.900000000000006,0)" xlink:href="#aG"/><use transform="matrix(0.05,0,0,0.05,60.85,0)" xlink:href="#ao"/></g><g id="o"><use transform="matrix(0.05,0,0,0.05,0,0)" xlink:href="#aE"/><use transform="matrix(0.05,0,0,0.05,10,0)" xlink:href="#ah"/><use transform="matrix(0.05,0,0,0.05,20,0)" xlink:href="#aj"/><use transform="matrix(0.05,0,0,0.05,25,0)" xlink:href="#az"/><use transform="matrix(0.05,0,0,0.05,35,0)" xlink:href="#av"/><use transform="matrix(0.05,0,0,0.05,45,0)" xlink:href="#an"/><use transform="matrix(0.05,0,0,0.05,55,0)" xlink:href="#ay"/><use transform="matrix(0.05,0,0,0.05,58.95,0)" xlink:href="#av"/><use transform="matrix(0.05,0,0,0.05,68.95,0)" xlink:href="#ax"/><use transform="matrix(0.05,0,0,0.05,77.95,0)" xlink:href="#ah"/><use transform="matrix(0.05,0,0,0.05,87.95,0)" xlink:href="#ap"/><use transform="matrix(0.05,0,0,0.05,97.95,0)" xlink:href="#aj"/><use transform="matrix(0.05,0,0,0.05,102.95,0)" xlink:href="#az"/><use transform="matrix(0.05,0,0,0.05,112.95,0)" xlink:href="#aq"/><use transform="matrix(0.05,0,0,0.05,121.95,0)" xlink:href="#ah"/><use transform="matrix(0.05,0,0,0.05,131.95,0)" xlink:href="#ai"/><use transform="matrix(0.05,0,0,0.05,137.89999999999998,0)" xlink:href="#aj"/><use transform="matrix(0.05,0,0,0.05,142.89999999999998,0)" xlink:href="#am"/><use transform="matrix(0.05,0,0,0.05,146.84999999999997,0)" xlink:href="#ax"/><use transform="matrix(0.05,0,0,0.05,155.84999999999997,0)" xlink:href="#am"/><use transform="matrix(0.05,0,0,0.05,159.79999999999995,0)" xlink:href="#ah"/><use transform="matrix(0.05,0,0,0.05,169.79999999999995,0)" xlink:href="#ar"/><use transform="matrix(0.05,0,0,0.05,178.79999999999995,0)" xlink:href="#aF"/><use transform="matrix(0.05,0,0,0.05,184.74999999999994,0)" xlink:href="#aG"/><use transform="matrix(0.05,0,0,0.05,190.69999999999993,0)" xlink:href="#ao"/></g><g id="p"><use transform="matrix(0.05,0,0,0.05,0,0)" xlink:href="#aE"/><use transform="matrix(0.05,0,0,0.05,10,0)" xlink:href="#ah"/><use transform="matrix(0.05,0,0,0.05,20,0)" xlink:href="#aj"/><use transform="matrix(0.05,0,0,0.05,25,0)" xlink:href="#az"/><use transform="matrix(0.05,0,0,0.05,35,0)" xlink:href="#aw"/><use transform="matrix(0.05,0,0,0.05,45,0)" xlink:href="#ai"/><use transform="matrix(0.05,0,0,0.05,50.95,0)" xlink:href="#ah"/><use transform="matrix(0.05,0,0,0.05,60.95,0)" xlink:href="#an"/><use transform="matrix(0.05,0,0,0.05,70.95,0)" xlink:href="#ah"/><use transform="matrix(0.05,0,0,0.05,80.95,0)" xlink:href="#ax"/><use transform="matrix(0.05,0,0,0.05,89.95,0)" xlink:href="#ah"/><use transform="matrix(0.05,0,0,0.05,99.95,0)" xlink:href="#ar"/><use transform="matrix(0.05,0,0,0.05,108.95,0)" xlink:href="#ar"/><use transform="matrix(0.05,0,0,0.05,117.95,0)" xlink:href="#at"/><use transform="matrix(0.05,0,0,0.05,127.95,0)" xlink:href="#ai"/><use transform="matrix(0.05,0,0,0.05,133.9,0)" xlink:href="#aF"/><use transform="matrix(0.05,0,0,0.05,139.85,0)" xlink:href="#aG"/><use transform="matrix(0.05,0,0,0.05,145.79999999999998,0)" xlink:href="#ao"/></g><g id="q"><use transform="matrix(0.05,0,0,0.05,0,0)" xlink:href="#am"/><use transform="matrix(0.05,0,0,0.05,3.95,0)" xlink:href="#ar"/><use transform="matrix(0.05,0,0,0.05,12.949999999999998,0)" xlink:href="#az"/><use transform="matrix(0.05,0,0,0.05,22.95,0)" xlink:href="#av"/><use transform="matrix(0.05,0,0,0.05,32.95,0)" xlink:href="#an"/><use transform="matrix(0.05,0,0,0.05,42.95,0)" xlink:href="#ay"/><use transform="matrix(0.05,0,0,0.05,46.900000000000006,0)" xlink:href="#av"/><use transform="matrix(0.05,0,0,0.05,56.900000000000006,0)" xlink:href="#ax"/><use transform="matrix(0.05,0,0,0.05,65.9,0)" xlink:href="#ah"/><use transform="matrix(0.05,0,0,0.05,75.9,0)" xlink:href="#ap"/><use transform="matrix(0.05,0,0,0.05,85.9,0)" xlink:href="#aj"/><use transform="matrix(0.05,0,0,0.05,90.9,0)" xlink:href="#aF"/><use transform="matrix(0.05,0,0,0.05,96.85000000000001,0)" xlink:href="#ag"/><use transform="matrix(0.05,0,0,0.05,107.85000000000001,0)" xlink:href="#ah"/><use transform="matrix(0.05,0,0,0.05,117.85000000000001,0)" xlink:href="#ai"/><use transform="matrix(0.05,0,0,0.05,123.80000000000001,0)" xlink:href="#aj"/><use transform="matrix(0.05,0,0,0.05,128.8,0)" xlink:href="#ah"/><use transform="matrix(0.05,0,0,0.05,138.8,0)" xlink:href="#ak"/><use transform="matrix(0.05,0,0,0.05,147.8,0)" xlink:href="#aG"/></g><g id="r"><use transform="matrix(0.05,0,0,0.05,0,0)" xlink:href="#av"/><use transform="matrix(0.05,0,0,0.05,10,0)" xlink:href="#an"/><use transform="matrix(0.05,0,0,0.05,20,0)" xlink:href="#an"/><use transform="matrix(0.05,0,0,0.05,30,0)" xlink:href="#az"/><use transform="matrix(0.05,0,0,0.05,40,0)" xlink:href="#av"/><use transform="matrix(0.05,0,0,0.05,50,0)" xlink:href="#an"/><use transform="matrix(0.05,0,0,0.05,60,0)" xlink:href="#ay"/><use transform="matrix(0.05,0,0,0.05,63.95,0)" xlink:href="#av"/><use transform="matrix(0.05,0,0,0.05,73.95,0)" xlink:href="#ax"/><use transform="matrix(0.05,0,0,0.05,82.95,0)" xlink:href="#ah"/><use transform="matrix(0.05,0,0,0.05,92.95,0)" xlink:href="#ap"/><use transform="matrix(0.05,0,0,0.05,102.95,0)" xlink:href="#aj"/><use transform="matrix(0.05,0,0,0.05,107.95,0)" xlink:href="#az"/><use transform="matrix(0.05,0,0,0.05,117.95,0)" xlink:href="#aq"/><use transform="matrix(0.05,0,0,0.05,126.95,0)" xlink:href="#ah"/><use transform="matrix(0.05,0,0,0.05,136.95,0)" xlink:href="#ai"/><use transform="matrix(0.05,0,0,0.05,142.89999999999998,0)" xlink:href="#aj"/><use transform="matrix(0.05,0,0,0.05,147.89999999999998,0)" xlink:href="#ah"/><use transform="matrix(0.05,0,0,0.05,157.89999999999998,0)" xlink:href="#ak"/><use transform="matrix(0.05,0,0,0.05,166.89999999999998,0)" xlink:href="#aF"/><use transform="matrix(0.05,0,0,0.05,172.84999999999997,0)" xlink:href="#ag"/><use transform="matrix(0.05,0,0,0.05,183.84999999999997,0)" xlink:href="#ah"/><use transform="matrix(0.05,0,0,0.05,193.84999999999997,0)" xlink:href="#ai"/><use transform="matrix(0.05,0,0,0.05,199.79999999999995,0)" xlink:href="#aj"/><use transform="matrix(0.05,0,0,0.05,204.79999999999995,0)" xlink:href="#ah"/><use transform="matrix(0.05,0,0,0.05,214.79999999999995,0)" xlink:href="#ak"/><use transform="matrix(0.05,0,0,0.05,223.79999999999995,0)" xlink:href="#aG"/><use transform="matrix(0.05,0,0,0.05,229.74999999999991,0)" xlink:href="#ao"/></g><g id="s"><use transform="matrix(0.05,0,0,0.05,0,0)" xlink:href="#aq"/><use transform="matrix(0.05,0,0,0.05,9,0)" xlink:href="#at"/><use transform="matrix(0.05,0,0,0.05,19,0)" xlink:href="#am"/><use transform="matrix(0.05,0,0,0.05,22.95,0)" xlink:href="#an"/></g><g id="t"><use transform="matrix(0.05,0,0,0.05,0,0)" xlink:href="#ag"/><use transform="matrix(0.05,0,0,0.05,11,0)" xlink:href="#ah"/><use transform="matrix(0.05,0,0,0.05,21,0)" xlink:href="#ai"/><use transform="matrix(0.05,0,0,0.05,26.950000000000003,0)" xlink:href="#aj"/><use transform="matrix(0.05,0,0,0.05,31.950000000000003,0)" xlink:href="#ah"/><use transform="matrix(0.05,0,0,0.05,41.95,0)" xlink:href="#ak"/><use transform="matrix(0.05,0,0,0.05,50.95,0)" xlink:href="#aF"/><use transform="matrix(0.05,0,0,0.05,56.900000000000006,0)" xlink:href="#am"/><use transform="matrix(0.05,0,0,0.05,60.85,0)" xlink:href="#an"/><use transform="matrix(0.05,0,0,0.05,70.85000000000001,0)" xlink:href="#aG"/></g><path fill="#333" d="M30 0v-248h187v28H63v79h144v27H63v87h162V0H30" id="aH"/><g id="u"><use transform="matrix(0.05,0,0,0.05,0,0)" xlink:href="#aH"/><use transform="matrix(0.05,0,0,0.05,12,0)" xlink:href="#an"/><use transform="matrix(0.05,0,0,0.05,22,0)" xlink:href="#aE"/><use transform="matrix(0.05,0,0,0.05,32,0)" xlink:href="#ah"/></g><g id="v"><use transform="matrix(0.05,0,0,0.05,0,0)" xlink:href="#at"/><use transform="matrix(0.05,0,0,0.05,10,0)" xlink:href="#ai"/><use transform="matrix(0.05,0,0,0.05,15.949999999999998,0)" xlink:href="#am"/><use transform="matrix(0.05,0,0,0.05,19.9,0)" xlink:href="#aE"/><use transform="matrix(0.05,0,0,0.05,29.899999999999995,0)" xlink:href="#am"/><use transform="matrix(0.05,0,0,0.05,33.85,0)" xlink:href="#ap"/><use transform="matrix(0.05,0,0,0.05,43.85,0)" xlink:href="#ao"/></g><g id="w"><use transform="matrix(0.05,0,0,0.05,0,0)" xlink:href="#an"/><use transform="matrix(0.05,0,0,0.05,10,0)" xlink:href="#ah"/><use transform="matrix(0.05,0,0,0.05,20,0)" xlink:href="#ar"/><use transform="matrix(0.05,0,0,0.05,29,0)" xlink:href="#aj"/><use transform="matrix(0.05,0,0,0.05,34,0)" xlink:href="#am"/><use transform="matrix(0.05,0,0,0.05,37.95,0)" xlink:href="#ap"/><use transform="matrix(0.05,0,0,0.05,47.95,0)" xlink:href="#av"/><use transform="matrix(0.05,0,0,0.05,57.95,0)" xlink:href="#aj"/><use transform="matrix(0.05,0,0,0.05,62.95,0)" xlink:href="#am"/><use transform="matrix(0.05,0,0,0.05,66.9,0)" xlink:href="#at"/><use transform="matrix(0.05,0,0,0.05,76.9,0)" xlink:href="#ap"/><use transform="matrix(0.05,0,0,0.05,86.9,0)" xlink:href="#ao"/></g><path fill="#333" d="M206 0h-36l-40-164L89 0H53L-1-190h32L70-26l43-164h34l41 164 42-164h31" id="aI"/><path fill="#333" d="M106-169C34-169 62-67 57 0H25v-261h32l-1 103c12-21 28-36 61-36 89 0 53 116 60 194h-32v-121c2-32-8-49-39-48" id="aJ"/><g id="x"><use transform="matrix(0.05,0,0,0.05,0,0)" xlink:href="#aI"/><use transform="matrix(0.05,0,0,0.05,12.950000000000001,0)" xlink:href="#ah"/><use transform="matrix(0.05,0,0,0.05,22.950000000000003,0)" xlink:href="#am"/><use transform="matrix(0.05,0,0,0.05,26.900000000000002,0)" xlink:href="#aE"/><use transform="matrix(0.05,0,0,0.05,36.900000000000006,0)" xlink:href="#aJ"/><use transform="matrix(0.05,0,0,0.05,46.900000000000006,0)" xlink:href="#aj"/><use transform="matrix(0.05,0,0,0.05,51.900000000000006,0)" xlink:href="#ao"/></g><g id="y"><use transform="matrix(0.05,0,0,0.05,0,0)" xlink:href="#am"/><use transform="matrix(0.05,0,0,0.05,3.95,0)" xlink:href="#ap"/><use transform="matrix(0.05,0,0,0.05,13.949999999999998,0)" xlink:href="#aj"/></g><path fill="#333" d="M68-38c1 34 0 65-14 84H32c9-13 17-26 17-46H33v-38h35" id="aK"/><g id="z"><use transform="matrix(0.05,0,0,0.05,0,0)" xlink:href="#aH"/><use transform="matrix(0.05,0,0,0.05,12,0)" xlink:href="#an"/><use transform="matrix(0.05,0,0,0.05,22,0)" xlink:href="#aE"/><use transform="matrix(0.05,0,0,0.05,32,0)" xlink:href="#ah"/><use transform="matrix(0.05,0,0,0.05,42,0)" xlink:href="#aF"/><use transform="matrix(0.05,0,0,0.05,47.95,0)" xlink:href="#ag"/><use transform="matrix(0.05,0,0,0.05,58.95,0)" xlink:href="#ah"/><use transform="matrix(0.05,0,0,0.05,68.95,0)" xlink:href="#ai"/><use transform="matrix(0.05,0,0,0.05,74.9,0)" xlink:href="#aj"/><use transform="matrix(0.05,0,0,0.05,79.9,0)" xlink:href="#ah"/><use transform="matrix(0.05,0,0,0.05,89.9,0)" xlink:href="#ak"/><use transform="matrix(0.05,0,0,0.05,98.9,0)" xlink:href="#aK"/></g><g id="A"><use transform="matrix(0.05,0,0,0.05,0,0)" xlink:href="#ag"/><use transform="matrix(0.05,0,0,0.05,11,0)" xlink:href="#ah"/><use transform="matrix(0.05,0,0,0.05,21,0)" xlink:href="#ai"/><use transform="matrix(0.05,0,0,0.05,26.950000000000003,0)" xlink:href="#aj"/><use transform="matrix(0.05,0,0,0.05,31.950000000000003,0)" xlink:href="#ah"/><use transform="matrix(0.05,0,0,0.05,41.95,0)" xlink:href="#ak"/><use transform="matrix(0.05,0,0,0.05,50.95,0)" xlink:href="#aK"/></g><g id="B"><use transform="matrix(0.05,0,0,0.05,0,0)" xlink:href="#am"/><use transform="matrix(0.05,0,0,0.05,3.95,0)" xlink:href="#ap"/><use transform="matrix(0.05,0,0,0.05,13.949999999999998,0)" xlink:href="#aj"/><use transform="matrix(0.05,0,0,0.05,18.95,0)" xlink:href="#aG"/></g><g id="C"><use transform="matrix(0.05,0,0,0.05,0,0)" xlink:href="#aE"/><use transform="matrix(0.05,0,0,0.05,10,0)" xlink:href="#ah"/><use transform="matrix(0.05,0,0,0.05,20,0)" xlink:href="#aj"/><use transform="matrix(0.05,0,0,0.05,25,0)" xlink:href="#az"/><use transform="matrix(0.05,0,0,0.05,35,0)" xlink:href="#at"/><use transform="matrix(0.05,0,0,0.05,45,0)" xlink:href="#ai"/><use transform="matrix(0.05,0,0,0.05,50.95,0)" xlink:href="#am"/><use transform="matrix(0.05,0,0,0.05,54.900000000000006,0)" xlink:href="#aE"/><use transform="matrix(0.05,0,0,0.05,64.9,0)" xlink:href="#am"/><use transform="matrix(0.05,0,0,0.05,68.85000000000001,0)" xlink:href="#ap"/><use transform="matrix(0.05,0,0,0.05,78.85000000000001,0)" xlink:href="#aF"/><use transform="matrix(0.05,0,0,0.05,84.80000000000001,0)" xlink:href="#aG"/><use transform="matrix(0.05,0,0,0.05,90.75000000000001,0)" xlink:href="#ao"/></g><g id="D"><use transform="matrix(0.05,0,0,0.05,0,0)" xlink:href="#aE"/><use transform="matrix(0.05,0,0,0.05,10,0)" xlink:href="#ah"/><use transform="matrix(0.05,0,0,0.05,20,0)" xlink:href="#aj"/><use transform="matrix(0.05,0,0,0.05,25,0)" xlink:href="#az"/><use transform="matrix(0.05,0,0,0.05,35,0)" xlink:href="#an"/><use transform="matrix(0.05,0,0,0.05,45,0)" xlink:href="#ah"/><use transform="matrix(0.05,0,0,0.05,55,0)" xlink:href="#ar"/><use transform="matrix(0.05,0,0,0.05,64,0)" xlink:href="#aj"/><use transform="matrix(0.05,0,0,0.05,69,0)" xlink:href="#am"/><use transform="matrix(0.05,0,0,0.05,72.95,0)" xlink:href="#ap"/><use transform="matrix(0.05,0,0,0.05,82.95,0)" xlink:href="#av"/><use transform="matrix(0.05,0,0,0.05,92.95,0)" xlink:href="#aj"/><use transform="matrix(0.05,0,0,0.05,97.95,0)" xlink:href="#am"/><use transform="matrix(0.05,0,0,0.05,101.9,0)" xlink:href="#at"/><use transform="matrix(0.05,0,0,0.05,111.9,0)" xlink:href="#ap"/><use transform="matrix(0.05,0,0,0.05,121.9,0)" xlink:href="#aF"/><use transform="matrix(0.05,0,0,0.05,127.85000000000001,0)" xlink:href="#aG"/><use transform="matrix(0.05,0,0,0.05,133.8,0)" xlink:href="#ao"/></g><g id="E"><use transform="matrix(0.05,0,0,0.05,0,0)" xlink:href="#ag"/><use transform="matrix(0.05,0,0,0.05,11,0)" xlink:href="#ah"/><use transform="matrix(0.05,0,0,0.05,21,0)" xlink:href="#ai"/><use transform="matrix(0.05,0,0,0.05,26.950000000000003,0)" xlink:href="#aj"/><use transform="matrix(0.05,0,0,0.05,31.950000000000003,0)" xlink:href="#ah"/><use transform="matrix(0.05,0,0,0.05,41.95,0)" xlink:href="#ak"/></g><path fill="#333" d="M143 4C61 4 22-44 18-125c-5-107 100-154 193-111 17 8 29 25 37 43l-32 9c-13-25-37-40-76-40-61 0-88 39-88 99 0 61 29 100 91 101 35 0 62-11 79-27v-45h-74v-28h105v86C228-13 192 4 143 4" id="aL"/><g id="F"><use transform="matrix(0.05,0,0,0.05,0,0)" xlink:href="#aL"/><use transform="matrix(0.05,0,0,0.05,14,0)" xlink:href="#ai"/><use transform="matrix(0.05,0,0,0.05,19.95,0)" xlink:href="#av"/><use transform="matrix(0.05,0,0,0.05,29.950000000000003,0)" xlink:href="#aw"/><use transform="matrix(0.05,0,0,0.05,39.95,0)" xlink:href="#aJ"/></g><g id="G"><use transform="matrix(0.05,0,0,0.05,0,0)" xlink:href="#ah"/><use transform="matrix(0.05,0,0,0.05,10,0)" xlink:href="#an"/><use transform="matrix(0.05,0,0,0.05,20,0)" xlink:href="#aE"/><use transform="matrix(0.05,0,0,0.05,30,0)" xlink:href="#ah"/><use transform="matrix(0.05,0,0,0.05,40,0)" xlink:href="#ar"/><use transform="matrix(0.05,0,0,0.05,49,0)" xlink:href="#ao"/></g><g id="H"><use transform="matrix(0.05,0,0,0.05,0,0)" xlink:href="#aH"/><use transform="matrix(0.05,0,0,0.05,12,0)" xlink:href="#an"/><use transform="matrix(0.05,0,0,0.05,22,0)" xlink:href="#aE"/><use transform="matrix(0.05,0,0,0.05,32,0)" xlink:href="#ah"/><use transform="matrix(0.05,0,0,0.05,42,0)" xlink:href="#aA"/><use transform="matrix(0.05,0,0,0.05,47,0)" xlink:href="#aB"/></g><g id="I"><use transform="matrix(0.05,0,0,0.05,0,0)" xlink:href="#al"/><use transform="matrix(0.05,0,0,0.05,5.95,0)" xlink:href="#aq"/><use transform="matrix(0.05,0,0,0.05,14.949999999999998,0)" xlink:href="#ah"/><use transform="matrix(0.05,0,0,0.05,24.95,0)" xlink:href="#ai"/><use transform="matrix(0.05,0,0,0.05,30.899999999999995,0)" xlink:href="#aj"/><use transform="matrix(0.05,0,0,0.05,35.9,0)" xlink:href="#am"/><use transform="matrix(0.05,0,0,0.05,39.85,0)" xlink:href="#ax"/><use transform="matrix(0.05,0,0,0.05,48.85,0)" xlink:href="#am"/><use transform="matrix(0.05,0,0,0.05,52.800000000000004,0)" xlink:href="#ah"/><use transform="matrix(0.05,0,0,0.05,62.800000000000004,0)" xlink:href="#ar"/><use transform="matrix(0.05,0,0,0.05,71.80000000000001,0)" xlink:href="#ao"/></g><g id="K"><use transform="matrix(0.05,0,0,0.05,0,0)" xlink:href="#av"/><use transform="matrix(0.05,0,0,0.05,10,0)" xlink:href="#an"/><use transform="matrix(0.05,0,0,0.05,20,0)" xlink:href="#an"/><use transform="matrix(0.05,0,0,0.05,30,0)" xlink:href="#az"/><use transform="matrix(0.05,0,0,0.05,40,0)" xlink:href="#aq"/><use transform="matrix(0.05,0,0,0.05,49,0)" xlink:href="#ah"/><use transform="matrix(0.05,0,0,0.05,59,0)" xlink:href="#ai"/><use transform="matrix(0.05,0,0,0.05,64.95,0)" xlink:href="#aj"/><use transform="matrix(0.05,0,0,0.05,69.95,0)" xlink:href="#ah"/><use transform="matrix(0.05,0,0,0.05,79.95,0)" xlink:href="#ak"/><use transform="matrix(0.05,0,0,0.05,88.95,0)" xlink:href="#aF"/><use transform="matrix(0.05,0,0,0.05,94.9,0)" xlink:href="#aG"/><use transform="matrix(0.05,0,0,0.05,100.85000000000001,0)" xlink:href="#ao"/></g><g id="L"><use transform="matrix(0.05,0,0,0.05,0,0)" xlink:href="#aE"/><use transform="matrix(0.05,0,0,0.05,10,0)" xlink:href="#ah"/><use transform="matrix(0.05,0,0,0.05,20,0)" xlink:href="#aj"/><use transform="matrix(0.05,0,0,0.05,25,0)" xlink:href="#az"/><use transform="matrix(0.05,0,0,0.05,35,0)" xlink:href="#aq"/><use transform="matrix(0.05,0,0,0.05,44,0)" xlink:href="#ah"/><use transform="matrix(0.05,0,0,0.05,54,0)" xlink:href="#ai"/><use transform="matrix(0.05,0,0,0.05,59.95,0)" xlink:href="#aj"/><use transform="matrix(0.05,0,0,0.05,64.95,0)" xlink:href="#ah"/><use transform="matrix(0.05,0,0,0.05,74.95,0)" xlink:href="#ak"/><use transform="matrix(0.05,0,0,0.05,83.95,0)" xlink:href="#aF"/><use transform="matrix(0.05,0,0,0.05,89.9,0)" xlink:href="#am"/><use transform="matrix(0.05,0,0,0.05,93.85000000000001,0)" xlink:href="#ap"/><use transform="matrix(0.05,0,0,0.05,103.85000000000001,0)" xlink:href="#aj"/><use transform="matrix(0.05,0,0,0.05,108.85000000000001,0)" xlink:href="#aG"/><use transform="matrix(0.05,0,0,0.05,114.80000000000001,0)" xlink:href="#ao"/></g><path fill="#333" d="M101-234c-31-9-42 10-38 44h38v23H63V0H32v-167H5v-23h27c-7-52 17-82 69-68v24" id="aM"/><g id="M"><use transform="matrix(0.05,0,0,0.05,0,0)" xlink:href="#aE"/><use transform="matrix(0.05,0,0,0.05,10,0)" xlink:href="#ah"/><use transform="matrix(0.05,0,0,0.05,20,0)" xlink:href="#aj"/><use transform="matrix(0.05,0,0,0.05,25,0)" xlink:href="#az"/><use transform="matrix(0.05,0,0,0.05,35,0)" xlink:href="#ah"/><use transform="matrix(0.05,0,0,0.05,45,0)" xlink:href="#an"/><use transform="matrix(0.05,0,0,0.05,55,0)" xlink:href="#aE"/><use transform="matrix(0.05,0,0,0.05,65,0)" xlink:href="#ah"/><use transform="matrix(0.05,0,0,0.05,75,0)" xlink:href="#ar"/><use transform="matrix(0.05,0,0,0.05,84,0)" xlink:href="#az"/><use transform="matrix(0.05,0,0,0.05,94,0)" xlink:href="#aM"/><use transform="matrix(0.05,0,0,0.05,99,0)" xlink:href="#ai"/><use transform="matrix(0.05,0,0,0.05,104.95,0)" xlink:href="#at"/><use transform="matrix(0.05,0,0,0.05,114.95,0)" xlink:href="#aC"/><use transform="matrix(0.05,0,0,0.05,129.9,0)" xlink:href="#az"/><use transform="matrix(0.05,0,0,0.05,139.9,0)" xlink:href="#aq"/><use transform="matrix(0.05,0,0,0.05,148.9,0)" xlink:href="#ah"/><use transform="matrix(0.05,0,0,0.05,158.9,0)" xlink:href="#ai"/><use transform="matrix(0.05,0,0,0.05,164.85,0)" xlink:href="#aj"/><use transform="matrix(0.05,0,0,0.05,169.85,0)" xlink:href="#ah"/><use transform="matrix(0.05,0,0,0.05,179.85,0)" xlink:href="#ak"/><use transform="matrix(0.05,0,0,0.05,188.85,0)" xlink:href="#aF"/><use transform="matrix(0.05,0,0,0.05,194.79999999999998,0)" xlink:href="#am"/><use transform="matrix(0.05,0,0,0.05,198.74999999999997,0)" xlink:href="#ap"/><use transform="matrix(0.05,0,0,0.05,208.74999999999997,0)" xlink:href="#aj"/><use transform="matrix(0.05,0,0,0.05,213.74999999999997,0)" xlink:href="#aG"/><use transform="matrix(0.05,0,0,0.05,219.69999999999996,0)" xlink:href="#ao"/></g><g id="N"><use transform="matrix(0.05,0,0,0.05,0,0)" xlink:href="#aH"/><use transform="matrix(0.05,0,0,0.05,12,0)" xlink:href="#an"/><use transform="matrix(0.05,0,0,0.05,22,0)" xlink:href="#aE"/><use transform="matrix(0.05,0,0,0.05,32,0)" xlink:href="#ah"/><use transform="matrix(0.05,0,0,0.05,42,0)" xlink:href="#ar"/><use transform="matrix(0.05,0,0,0.05,51,0)" xlink:href="#aA"/><use transform="matrix(0.05,0,0,0.05,56,0)" xlink:href="#aB"/></g><g id="O"><use transform="matrix(0.05,0,0,0.05,0,0)" xlink:href="#aE"/><use transform="matrix(0.05,0,0,0.05,10,0)" xlink:href="#ah"/><use transform="matrix(0.05,0,0,0.05,20,0)" xlink:href="#aj"/><use transform="matrix(0.05,0,0,0.05,25,0)" xlink:href="#az"/><use transform="matrix(0.05,0,0,0.05,35,0)" xlink:href="#ah"/><use transform="matrix(0.05,0,0,0.05,45,0)" xlink:href="#an"/><use transform="matrix(0.05,0,0,0.05,55,0)" xlink:href="#aE"/><use transform="matrix(0.05,0,0,0.05,65,0)" xlink:href="#ah"/><use transform="matrix(0.05,0,0,0.05,75,0)" xlink:href="#ar"/><use transform="matrix(0.05,0,0,0.05,84,0)" xlink:href="#az"/><use transform="matrix(0.05,0,0,0.05,94,0)" xlink:href="#aM"/><use transform="matrix(0.05,0,0,0.05,99,0)" xlink:href="#ai"/><use transform="matrix(0.05,0,0,0.05,104.95,0)" xlink:href="#at"/><use transform="matrix(0.05,0,0,0.05,114.95,0)" xlink:href="#aC"/><use transform="matrix(0.05,0,0,0.05,129.9,0)" xlink:href="#az"/><use transform="matrix(0.05,0,0,0.05,139.9,0)" xlink:href="#aq"/><use transform="matrix(0.05,0,0,0.05,148.9,0)" xlink:href="#ah"/><use transform="matrix(0.05,0,0,0.05,158.9,0)" xlink:href="#ai"/><use transform="matrix(0.05,0,0,0.05,164.85,0)" xlink:href="#aj"/><use transform="matrix(0.05,0,0,0.05,169.85,0)" xlink:href="#ah"/><use transform="matrix(0.05,0,0,0.05,179.85,0)" xlink:href="#ak"/><use transform="matrix(0.05,0,0,0.05,188.85,0)" xlink:href="#aF"/><use transform="matrix(0.05,0,0,0.05,194.79999999999998,0)" xlink:href="#ag"/><use transform="matrix(0.05,0,0,0.05,205.79999999999995,0)" xlink:href="#ah"/><use transform="matrix(0.05,0,0,0.05,215.79999999999995,0)" xlink:href="#ai"/><use transform="matrix(0.05,0,0,0.05,221.74999999999997,0)" xlink:href="#aj"/><use transform="matrix(0.05,0,0,0.05,226.74999999999997,0)" xlink:href="#ah"/><use transform="matrix(0.05,0,0,0.05,236.74999999999997,0)" xlink:href="#ak"/><use transform="matrix(0.05,0,0,0.05,245.74999999999997,0)" xlink:href="#aG"/><use transform="matrix(0.05,0,0,0.05,251.69999999999996,0)" xlink:href="#ao"/></g><g id="P"><use transform="matrix(0.05,0,0,0.05,0,0)" xlink:href="#aE"/><use transform="matrix(0.05,0,0,0.05,10,0)" xlink:href="#ah"/><use transform="matrix(0.05,0,0,0.05,20,0)" xlink:href="#aj"/><use transform="matrix(0.05,0,0,0.05,25,0)" xlink:href="#az"/><use transform="matrix(0.05,0,0,0.05,35,0)" xlink:href="#ah"/><use transform="matrix(0.05,0,0,0.05,45,0)" xlink:href="#an"/><use transform="matrix(0.05,0,0,0.05,55,0)" xlink:href="#aE"/><use transform="matrix(0.05,0,0,0.05,65,0)" xlink:href="#ah"/><use transform="matrix(0.05,0,0,0.05,75,0)" xlink:href="#ar"/><use transform="matrix(0.05,0,0,0.05,84,0)" xlink:href="#az"/><use transform="matrix(0.05,0,0,0.05,94,0)" xlink:href="#aj"/><use transform="matrix(0.05,0,0,0.05,99,0)" xlink:href="#at"/><use transform="matrix(0.05,0,0,0.05,109,0)" xlink:href="#az"/><use transform="matrix(0.05,0,0,0.05,119,0)" xlink:href="#aq"/><use transform="matrix(0.05,0,0,0.05,128,0)" xlink:href="#ah"/><use transform="matrix(0.05,0,0,0.05,138,0)" xlink:href="#ai"/><use transform="matrix(0.05,0,0,0.05,143.95,0)" xlink:href="#aj"/><use transform="matrix(0.05,0,0,0.05,148.95,0)" xlink:href="#ah"/><use transform="matrix(0.05,0,0,0.05,158.95,0)" xlink:href="#ak"/><use transform="matrix(0.05,0,0,0.05,167.95,0)" xlink:href="#aF"/><use transform="matrix(0.05,0,0,0.05,173.89999999999998,0)" xlink:href="#am"/><use transform="matrix(0.05,0,0,0.05,177.84999999999997,0)" xlink:href="#ap"/><use transform="matrix(0.05,0,0,0.05,187.84999999999997,0)" xlink:href="#aj"/><use transform="matrix(0.05,0,0,0.05,192.84999999999997,0)" xlink:href="#aG"/><use transform="matrix(0.05,0,0,0.05,198.79999999999995,0)" xlink:href="#ao"/></g><g id="Q"><use transform="matrix(0.05,0,0,0.05,0,0)" xlink:href="#aE"/><use transform="matrix(0.05,0,0,0.05,10,0)" xlink:href="#ah"/><use transform="matrix(0.05,0,0,0.05,20,0)" xlink:href="#aj"/><use transform="matrix(0.05,0,0,0.05,25,0)" xlink:href="#az"/><use transform="matrix(0.05,0,0,0.05,35,0)" xlink:href="#ah"/><use transform="matrix(0.05,0,0,0.05,45,0)" xlink:href="#an"/><use transform="matrix(0.05,0,0,0.05,55,0)" xlink:href="#aE"/><use transform="matrix(0.05,0,0,0.05,65,0)" xlink:href="#ah"/><use transform="matrix(0.05,0,0,0.05,75,0)" xlink:href="#ar"/><use transform="matrix(0.05,0,0,0.05,84,0)" xlink:href="#az"/><use transform="matrix(0.05,0,0,0.05,94,0)" xlink:href="#aj"/><use transform="matrix(0.05,0,0,0.05,99,0)" xlink:href="#at"/><use transform="matrix(0.05,0,0,0.05,109,0)" xlink:href="#az"/><use transform="matrix(0.05,0,0,0.05,119,0)" xlink:href="#aq"/><use transform="matrix(0.05,0,0,0.05,128,0)" xlink:href="#ah"/><use transform="matrix(0.05,0,0,0.05,138,0)" xlink:href="#ai"/><use transform="matrix(0.05,0,0,0.05,143.95,0)" xlink:href="#aj"/><use transform="matrix(0.05,0,0,0.05,148.95,0)" xlink:href="#ah"/><use transform="matrix(0.05,0,0,0.05,158.95,0)" xlink:href="#ak"/><use transform="matrix(0.05,0,0,0.05,167.95,0)" xlink:href="#aF"/><use transform="matrix(0.05,0,0,0.05,173.89999999999998,0)" xlink:href="#ag"/><use transform="matrix(0.05,0,0,0.05,184.89999999999998,0)" xlink:href="#ah"/><use transform="matrix(0.05,0,0,0.05,194.89999999999998,0)" xlink:href="#ai"/><use transform="matrix(0.05,0,0,0.05,200.84999999999997,0)" xlink:href="#aj"/><use transform="matrix(0.05,0,0,0.05,205.84999999999997,0)" xlink:href="#ah"/><use transform="matrix(0.05,0,0,0.05,215.84999999999997,0)" xlink:href="#ak"/><use transform="matrix(0.05,0,0,0.05,224.84999999999997,0)" xlink:href="#aG"/><use transform="matrix(0.05,0,0,0.05,230.79999999999995,0)" xlink:href="#ao"/></g><g id="R"><use transform="matrix(0.05,0,0,0.05,0,0)" xlink:href="#ai"/><use transform="matrix(0.05,0,0,0.05,5.95,0)" xlink:href="#ah"/><use transform="matrix(0.05,0,0,0.05,15.949999999999998,0)" xlink:href="#aC"/><use transform="matrix(0.05,0,0,0.05,30.899999999999995,0)" xlink:href="#at"/><use transform="matrix(0.05,0,0,0.05,40.9,0)" xlink:href="#aq"/><use transform="matrix(0.05,0,0,0.05,49.9,0)" xlink:href="#ah"/><use transform="matrix(0.05,0,0,0.05,59.900000000000006,0)" xlink:href="#az"/><use transform="matrix(0.05,0,0,0.05,69.9,0)" xlink:href="#aq"/><use transform="matrix(0.05,0,0,0.05,78.9,0)" xlink:href="#ah"/><use transform="matrix(0.05,0,0,0.05,88.9,0)" xlink:href="#ai"/><use transform="matrix(0.05,0,0,0.05,94.85000000000001,0)" xlink:href="#aj"/><use transform="matrix(0.05,0,0,0.05,99.85000000000001,0)" xlink:href="#ah"/><use transform="matrix(0.05,0,0,0.05,109.85000000000001,0)" xlink:href="#ak"/><use transform="matrix(0.05,0,0,0.05,118.85000000000001,0)" xlink:href="#aF"/><use transform="matrix(0.05,0,0,0.05,124.80000000000001,0)" xlink:href="#am"/><use transform="matrix(0.05,0,0,0.05,128.75,0)" xlink:href="#an"/><use transform="matrix(0.05,0,0,0.05,138.75,0)" xlink:href="#aG"/><use transform="matrix(0.05,0,0,0.05,144.7,0)" xlink:href="#ao"/></g><g id="S"><use transform="matrix(0.05,0,0,0.05,0,0)" xlink:href="#aq"/><use transform="matrix(0.05,0,0,0.05,9,0)" xlink:href="#ah"/><use transform="matrix(0.05,0,0,0.05,19,0)" xlink:href="#ai"/><use transform="matrix(0.05,0,0,0.05,24.95,0)" xlink:href="#aj"/><use transform="matrix(0.05,0,0,0.05,29.950000000000003,0)" xlink:href="#ah"/><use transform="matrix(0.05,0,0,0.05,39.95,0)" xlink:href="#ak"/><use transform="matrix(0.05,0,0,0.05,48.95,0)" xlink:href="#az"/><use transform="matrix(0.05,0,0,0.05,58.95,0)" xlink:href="#ah"/><use transform="matrix(0.05,0,0,0.05,68.95,0)" xlink:href="#ak"/><use transform="matrix(0.05,0,0,0.05,77.95,0)" xlink:href="#am"/><use transform="matrix(0.05,0,0,0.05,81.9,0)" xlink:href="#ar"/><use transform="matrix(0.05,0,0,0.05,90.9,0)" xlink:href="#aj"/><use transform="matrix(0.05,0,0,0.05,95.9,0)" xlink:href="#ar"/><use transform="matrix(0.05,0,0,0.05,104.9,0)" xlink:href="#aF"/><use transform="matrix(0.05,0,0,0.05,110.85000000000001,0)" xlink:href="#am"/><use transform="matrix(0.05,0,0,0.05,114.80000000000001,0)" xlink:href="#an"/><use transform="matrix(0.05,0,0,0.05,124.80000000000001,0)" xlink:href="#aG"/><use transform="matrix(0.05,0,0,0.05,130.75,0)" xlink:href="#ao"/></g><path fill="#333" d="M185-189c-5-48-123-54-124 2 14 75 158 14 163 119 3 78-121 87-175 55-17-10-28-26-33-46l33-7c5 56 141 63 141-1 0-78-155-14-162-118-5-82 145-84 179-34 5 7 8 16 11 25" id="aN"/><g id="T"><use transform="matrix(0.05,0,0,0.05,0,0)" xlink:href="#aM"/><use transform="matrix(0.05,0,0,0.05,5,0)" xlink:href="#at"/><use transform="matrix(0.05,0,0,0.05,15,0)" xlink:href="#ai"/><use transform="matrix(0.05,0,0,0.05,20.95,0)" xlink:href="#aC"/><use transform="matrix(0.05,0,0,0.05,35.9,0)" xlink:href="#av"/><use transform="matrix(0.05,0,0,0.05,45.9,0)" xlink:href="#aj"/><use transform="matrix(0.05,0,0,0.05,50.9,0)" xlink:href="#aF"/><use transform="matrix(0.05,0,0,0.05,56.85,0)" xlink:href="#aN"/><use transform="matrix(0.05,0,0,0.05,68.85,0)" xlink:href="#aj"/><use transform="matrix(0.05,0,0,0.05,73.85,0)" xlink:href="#ai"/><use transform="matrix(0.05,0,0,0.05,79.8,0)" xlink:href="#am"/><use transform="matrix(0.05,0,0,0.05,83.75,0)" xlink:href="#ap"/><use transform="matrix(0.05,0,0,0.05,93.75,0)" xlink:href="#aE"/></g><path fill="#333" d="M179-190L93 31C79 59 56 82 12 73V49c39 6 53-20 64-50L1-190h34L92-34l54-156h33" id="aO"/><g id="U"><use transform="matrix(0.05,0,0,0.05,0,0)" xlink:href="#aj"/><use transform="matrix(0.05,0,0,0.05,5,0)" xlink:href="#aO"/><use transform="matrix(0.05,0,0,0.05,14,0)" xlink:href="#aw"/><use transform="matrix(0.05,0,0,0.05,24,0)" xlink:href="#ah"/><use transform="matrix(0.05,0,0,0.05,34,0)" xlink:href="#aG"/><use transform="matrix(0.05,0,0,0.05,39.95,0)" xlink:href="#ao"/></g><g id="V"><use transform="matrix(0.05,0,0,0.05,0,0)" xlink:href="#aN"/><use transform="matrix(0.05,0,0,0.05,12,0)" xlink:href="#aj"/><use transform="matrix(0.05,0,0,0.05,17,0)" xlink:href="#ai"/><use transform="matrix(0.05,0,0,0.05,22.95,0)" xlink:href="#am"/><use transform="matrix(0.05,0,0,0.05,26.899999999999995,0)" xlink:href="#ap"/><use transform="matrix(0.05,0,0,0.05,36.9,0)" xlink:href="#aE"/></g><g id="W"><use transform="matrix(0.05,0,0,0.05,0,0)" xlink:href="#aM"/><use transform="matrix(0.05,0,0,0.05,5,0)" xlink:href="#at"/><use transform="matrix(0.05,0,0,0.05,15,0)" xlink:href="#ai"/><use transform="matrix(0.05,0,0,0.05,20.95,0)" xlink:href="#aC"/><use transform="matrix(0.05,0,0,0.05,35.9,0)" xlink:href="#av"/><use transform="matrix(0.05,0,0,0.05,45.9,0)" xlink:href="#aj"/><use transform="matrix(0.05,0,0,0.05,50.9,0)" xlink:href="#az"/><use transform="matrix(0.05,0,0,0.05,60.900000000000006,0)" xlink:href="#ax"/><use transform="matrix(0.05,0,0,0.05,69.9,0)" xlink:href="#ar"/><use transform="matrix(0.05,0,0,0.05,78.9,0)" xlink:href="#aq"/><use transform="matrix(0.05,0,0,0.05,87.9,0)" xlink:href="#aF"/><use transform="matrix(0.05,0,0,0.05,93.85000000000001,0)" xlink:href="#aG"/><use transform="matrix(0.05,0,0,0.05,99.80000000000001,0)" xlink:href="#ao"/></g><g id="X"><use transform="matrix(0.05,0,0,0.05,0,0)" xlink:href="#aM"/><use transform="matrix(0.05,0,0,0.05,5,0)" xlink:href="#at"/><use transform="matrix(0.05,0,0,0.05,15,0)" xlink:href="#ai"/><use transform="matrix(0.05,0,0,0.05,20.95,0)" xlink:href="#aC"/><use transform="matrix(0.05,0,0,0.05,35.9,0)" xlink:href="#av"/><use transform="matrix(0.05,0,0,0.05,45.9,0)" xlink:href="#aj"/><use transform="matrix(0.05,0,0,0.05,50.9,0)" xlink:href="#az"/><use transform="matrix(0.05,0,0,0.05,60.900000000000006,0)" xlink:href="#aj"/><use transform="matrix(0.05,0,0,0.05,65.9,0)" xlink:href="#ah"/><use transform="matrix(0.05,0,0,0.05,75.9,0)" xlink:href="#ak"/><use transform="matrix(0.05,0,0,0.05,84.9,0)" xlink:href="#aj"/><use transform="matrix(0.05,0,0,0.05,89.9,0)" xlink:href="#az"/><use transform="matrix(0.05,0,0,0.05,99.9,0)" xlink:href="#aM"/><use transform="matrix(0.05,0,0,0.05,104.9,0)" xlink:href="#am"/><use transform="matrix(0.05,0,0,0.05,108.85000000000001,0)" xlink:href="#au"/><use transform="matrix(0.05,0,0,0.05,112.80000000000001,0)" xlink:href="#ah"/><use transform="matrix(0.05,0,0,0.05,122.80000000000001,0)" xlink:href="#aF"/><use transform="matrix(0.05,0,0,0.05,128.75,0)" xlink:href="#aG"/><use transform="matrix(0.05,0,0,0.05,134.7,0)" xlink:href="#ao"/></g><g id="Y"><use transform="matrix(0.05,0,0,0.05,0,0)" xlink:href="#aM"/><use transform="matrix(0.05,0,0,0.05,5,0)" xlink:href="#at"/><use transform="matrix(0.05,0,0,0.05,15,0)" xlink:href="#ai"/><use transform="matrix(0.05,0,0,0.05,20.95,0)" xlink:href="#aC"/><use transform="matrix(0.05,0,0,0.05,35.9,0)" xlink:href="#av"/><use transform="matrix(0.05,0,0,0.05,45.9,0)" xlink:href="#aj"/><use transform="matrix(0.05,0,0,0.05,50.9,0)" xlink:href="#az"/><use transform="matrix(0.05,0,0,0.05,60.900000000000006,0)" xlink:href="#ax"/><use transform="matrix(0.05,0,0,0.05,69.9,0)" xlink:href="#at"/><use transform="matrix(0.05,0,0,0.05,79.9,0)" xlink:href="#ap"/><use transform="matrix(0.05,0,0,0.05,89.9,0)" xlink:href="#ar"/><use transform="matrix(0.05,0,0,0.05,98.9,0)" xlink:href="#at"/><use transform="matrix(0.05,0,0,0.05,108.9,0)" xlink:href="#au"/><use transform="matrix(0.05,0,0,0.05,112.85000000000001,0)" xlink:href="#ah"/><use transform="matrix(0.05,0,0,0.05,122.85000000000001,0)" xlink:href="#aF"/><use transform="matrix(0.05,0,0,0.05,128.8,0)" xlink:href="#aG"/><use transform="matrix(0.05,0,0,0.05,134.75,0)" xlink:href="#ao"/></g><path fill="#333" d="M84 4C-5 8 30-112 23-190h32v120c0 31 7 50 39 49 72-2 45-101 50-169h31l1 190h-30c-1-10 1-25-2-33-11 22-28 36-60 37" id="aP"/><g id="Z"><use transform="matrix(0.05,0,0,0.05,0,0)" xlink:href="#aM"/><use transform="matrix(0.05,0,0,0.05,5,0)" xlink:href="#at"/><use transform="matrix(0.05,0,0,0.05,15,0)" xlink:href="#ai"/><use transform="matrix(0.05,0,0,0.05,20.95,0)" xlink:href="#aC"/><use transform="matrix(0.05,0,0,0.05,35.9,0)" xlink:href="#av"/><use transform="matrix(0.05,0,0,0.05,45.9,0)" xlink:href="#aj"/><use transform="matrix(0.05,0,0,0.05,50.9,0)" xlink:href="#az"/><use transform="matrix(0.05,0,0,0.05,60.900000000000006,0)" xlink:href="#an"/><use transform="matrix(0.05,0,0,0.05,70.9,0)" xlink:href="#ah"/><use transform="matrix(0.05,0,0,0.05,80.9,0)" xlink:href="#as"/><use transform="matrix(0.05,0,0,0.05,90.9,0)" xlink:href="#aP"/><use transform="matrix(0.05,0,0,0.05,100.9,0)" xlink:href="#aE"/><use transform="matrix(0.05,0,0,0.05,110.9,0)" xlink:href="#aF"/><use transform="matrix(0.05,0,0,0.05,116.85000000000001,0)" xlink:href="#aG"/><use transform="matrix(0.05,0,0,0.05,122.80000000000001,0)" xlink:href="#ao"/></g><path fill="#333" d="M143 0L79-87 56-68V0H24v-261h32v163l83-92h37l-77 82L181 0h-38" id="aQ"/><g id="aa"><use transform="matrix(0.05,0,0,0.05,0,0)" xlink:href="#ai"/><use transform="matrix(0.05,0,0,0.05,5.95,0)" xlink:href="#aP"/><use transform="matrix(0.05,0,0,0.05,15.949999999999998,0)" xlink:href="#ap"/><use transform="matrix(0.05,0,0,0.05,25.950000000000003,0)" xlink:href="#az"/><use transform="matrix(0.05,0,0,0.05,35.95,0)" xlink:href="#an"/><use transform="matrix(0.05,0,0,0.05,45.95,0)" xlink:href="#am"/><use transform="matrix(0.05,0,0,0.05,49.900000000000006,0)" xlink:href="#ay"/><use transform="matrix(0.05,0,0,0.05,53.85,0)" xlink:href="#aQ"/><use transform="matrix(0.05,0,0,0.05,62.85,0)" xlink:href="#ar"/><use transform="matrix(0.05,0,0,0.05,71.85000000000001,0)" xlink:href="#aj"/><use transform="matrix(0.05,0,0,0.05,76.85000000000001,0)" xlink:href="#ai"/><use transform="matrix(0.05,0,0,0.05,82.80000000000001,0)" xlink:href="#av"/><use transform="matrix(0.05,0,0,0.05,92.80000000000001,0)" xlink:href="#aF"/><use transform="matrix(0.05,0,0,0.05,98.75000000000001,0)" xlink:href="#at"/><use transform="matrix(0.05,0,0,0.05,108.75,0)" xlink:href="#ai"/><use transform="matrix(0.05,0,0,0.05,114.7,0)" xlink:href="#am"/><use transform="matrix(0.05,0,0,0.05,118.65000000000003,0)" xlink:href="#aE"/><use transform="matrix(0.05,0,0,0.05,128.65000000000003,0)" xlink:href="#am"/><use transform="matrix(0.05,0,0,0.05,132.60000000000002,0)" xlink:href="#ap"/><use transform="matrix(0.05,0,0,0.05,142.60000000000002,0)" xlink:href="#aG"/><use transform="matrix(0.05,0,0,0.05,148.55,0)" xlink:href="#ao"/></g><g id="ab"><use transform="matrix(0.05,0,0,0.05,0,0)" xlink:href="#aE"/><use transform="matrix(0.05,0,0,0.05,10,0)" xlink:href="#ah"/><use transform="matrix(0.05,0,0,0.05,20,0)" xlink:href="#aj"/><use transform="matrix(0.05,0,0,0.05,25,0)" xlink:href="#az"/><use transform="matrix(0.05,0,0,0.05,35,0)" xlink:href="#ar"/><use transform="matrix(0.05,0,0,0.05,44,0)" xlink:href="#aJ"/><use transform="matrix(0.05,0,0,0.05,54,0)" xlink:href="#at"/><use transform="matrix(0.05,0,0,0.05,64,0)" xlink:href="#ai"/><use transform="matrix(0.05,0,0,0.05,69.95,0)" xlink:href="#aj"/><use transform="matrix(0.05,0,0,0.05,74.95,0)" xlink:href="#ah"/><use transform="matrix(0.05,0,0,0.05,84.95,0)" xlink:href="#ar"/><use transform="matrix(0.05,0,0,0.05,93.95,0)" xlink:href="#aj"/><use transform="matrix(0.05,0,0,0.05,98.95,0)" xlink:href="#az"/><use transform="matrix(0.05,0,0,0.05,108.95,0)" xlink:href="#aw"/><use transform="matrix(0.05,0,0,0.05,118.95,0)" xlink:href="#av"/><use transform="matrix(0.05,0,0,0.05,128.95,0)" xlink:href="#aj"/><use transform="matrix(0.05,0,0,0.05,133.95,0)" xlink:href="#aJ"/><use transform="matrix(0.05,0,0,0.05,143.95,0)" xlink:href="#aF"/><use transform="matrix(0.05,0,0,0.05,149.89999999999998,0)" xlink:href="#aj"/><use transform="matrix(0.05,0,0,0.05,154.89999999999998,0)" xlink:href="#av"/><use transform="matrix(0.05,0,0,0.05,164.89999999999998,0)" xlink:href="#ai"/><use transform="matrix(0.05,0,0,0.05,170.84999999999997,0)" xlink:href="#aE"/><use transform="matrix(0.05,0,0,0.05,180.84999999999997,0)" xlink:href="#ah"/><use transform="matrix(0.05,0,0,0.05,190.84999999999997,0)" xlink:href="#aj"/><use transform="matrix(0.05,0,0,0.05,195.84999999999997,0)" xlink:href="#az"/><use transform="matrix(0.05,0,0,0.05,205.84999999999997,0)" xlink:href="#aq"/><use transform="matrix(0.05,0,0,0.05,214.84999999999997,0)" xlink:href="#ah"/><use transform="matrix(0.05,0,0,0.05,224.84999999999997,0)" xlink:href="#ai"/><use transform="matrix(0.05,0,0,0.05,230.79999999999995,0)" xlink:href="#aj"/><use transform="matrix(0.05,0,0,0.05,235.79999999999995,0)" xlink:href="#ah"/><use transform="matrix(0.05,0,0,0.05,245.79999999999995,0)" xlink:href="#ak"/><use transform="matrix(0.05,0,0,0.05,254.79999999999995,0)" xlink:href="#aG"/><use transform="matrix(0.05,0,0,0.05,260.74999999999994,0)" xlink:href="#ao"/></g><g id="ac"><use transform="matrix(0.05,0,0,0.05,0,0)" xlink:href="#aL"/><use transform="matrix(0.05,0,0,0.05,14,0)" xlink:href="#ai"/><use transform="matrix(0.05,0,0,0.05,19.95,0)" xlink:href="#av"/><use transform="matrix(0.05,0,0,0.05,29.950000000000003,0)" xlink:href="#aw"/><use transform="matrix(0.05,0,0,0.05,39.95,0)" xlink:href="#aJ"/><use transform="matrix(0.05,0,0,0.05,49.95,0)" xlink:href="#aF"/><use transform="matrix(0.05,0,0,0.05,55.900000000000006,0)" xlink:href="#aG"/></g><path d="M27 0v-27h64v-190l-56 39v-29l58-41h29v221h61V0H27" id="aR"/><use transform="matrix(0.05,0,0,0.05,0,0)" xlink:href="#aR" id="ad"/><path d="M101-251c68 0 85 55 85 127S166 4 100 4C33 4 14-52 14-124c0-73 17-127 87-127zm-1 229c47 0 54-49 54-102s-4-102-53-102c-51 0-55 48-55 102 0 53 5 102 54 102" id="aS"/><path d="M33 0v-38h34V0H33" id="aT"/><path d="M80-196l47-18 7 23-49 13 32 44-20 13-27-46-27 45-21-12 33-44-49-13 8-23 47 19-2-53h23" id="aU"/><g id="ae"><use transform="matrix(0.05,0,0,0.05,0,0)" xlink:href="#aS"/><use transform="matrix(0.05,0,0,0.05,10,0)" xlink:href="#aT"/><use transform="matrix(0.05,0,0,0.05,15,0)" xlink:href="#aT"/><use transform="matrix(0.05,0,0,0.05,20,0)" xlink:href="#aU"/></g><g id="af"><use transform="matrix(0.05,0,0,0.05,0,0)" xlink:href="#aR"/><use transform="matrix(0.05,0,0,0.05,10,0)" xlink:href="#aT"/><use transform="matrix(0.05,0,0,0.05,15,0)" xlink:href="#aT"/><use transform="matrix(0.05,0,0,0.05,20,0)" xlink:href="#aU"/></g></defs></g></svg>